<svg width="103" height="103" viewBox="0 0 103 103" fill="none" xmlns="http://www.w3.org/2000/svg">
<circle cx="51.5" cy="51.5" r="51.5" fill="#1A2238"/>
<path d="M37 67H17.55V36.05H23.75V61.9H37V67Z" fill="#FF6A3D"/>
<path d="M60.7 44.2C60.7 45.2667 60.5 46.3 60.1 47.3C59.7 48.2667 59.1667 49.2167 58.5 50.15C57.8333 51.0833 57.0833 51.9833 56.25 52.85C55.4167 53.7167 54.5667 54.55 53.7 55.35C53.2667 55.75 52.7667 56.2333 52.2 56.8C51.6333 57.3333 51.1 57.9 50.6 58.5C50.1 59.0667 49.6667 59.65 49.3 60.25C48.9667 60.85 48.8 61.4 48.8 61.9H62.1V67H41.9C41.8 66.6667 41.75 66.25 41.75 65.75C41.7833 65.25 41.8 64.9 41.8 64.7C41.8 63.0333 42.1 61.5 42.7 60.1C43.3333 58.7 44.1167 57.4167 45.05 56.25C46.0167 55.05 47.0333 53.95 48.1 52.95C49.2 51.9167 50.2167 50.9333 51.15 50C52.1167 49.0667 52.9 48.1667 53.5 47.3C54.1333 46.4333 54.45 45.55 54.45 44.65C54.45 43.3833 54.0667 42.4167 53.3 41.75C52.5333 41.05 51.5667 40.7 50.4 40.7C49.4333 40.7 48.4167 40.9333 47.35 41.4C46.2833 41.8667 45.2333 42.65 44.2 43.75L41.15 39.45C42.4833 38.05 44.0167 37.0167 45.75 36.35C47.5167 35.6833 49.2667 35.35 51 35.35C52.2667 35.35 53.4833 35.5333 54.65 35.9C55.8167 36.2667 56.85 36.8167 57.75 37.55C58.65 38.2833 59.3667 39.2167 59.9 40.35C60.4333 41.45 60.7 42.7333 60.7 44.2Z" fill="white"/>
<path d="M66.2 55.25C66.2 53.55 66.4667 51.95 67 50.45C67.5333 48.95 68.35 47.65 69.45 46.55C70.55 45.4167 71.9333 44.5333 73.6 43.9C75.3 43.2333 77.3167 42.9 79.65 42.9C81.05 42.9 82.3167 43 83.45 43.2C84.5833 43.4 85.7333 43.7333 86.9 44.2L85.55 49.15C84.8833 48.9167 84.1333 48.7167 83.3 48.55C82.5 48.35 81.4667 48.25 80.2 48.25C78.7333 48.25 77.5 48.4333 76.5 48.8C75.5333 49.1333 74.75 49.6167 74.15 50.25C73.55 50.85 73.1167 51.5833 72.85 52.45C72.5833 53.3167 72.45 54.25 72.45 55.25C72.45 57.4167 73.05 59.1167 74.25 60.35C75.4833 61.5833 77.5667 62.2 80.5 62.2C81.4667 62.2 82.4667 62.1333 83.5 62C84.5667 61.8667 85.5333 61.65 86.4 61.35L87.3 66.4C86.4333 66.7333 85.3833 67 84.15 67.2C82.9167 67.4333 81.4667 67.55 79.8 67.55C77.4 67.55 75.3333 67.2333 73.6 66.6C71.9 65.9667 70.5 65.1 69.4 64C68.3 62.9 67.4833 61.6 66.95 60.1C66.45 58.6 66.2 56.9833 66.2 55.25Z" fill="#9DAAF2"/>
</svg>
