<svg width="20" height="24" viewBox="0 0 20 24" fill="none" xmlns="http://www.w3.org/2000/svg">
<path d="M1.76471 23.5294C1.29412 23.5294 0.882353 23.3529 0.529412 23C0.176471 22.6471 0 22.2353 0 21.7647V4.02941H1.76471V21.7647H15.7059V23.5294H1.76471ZM5.29412 20C4.82353 20 4.41176 19.8235 4.05882 19.4706C3.70588 19.1176 3.52941 18.7059 3.52941 18.2353V1.76471C3.52941 1.29412 3.70588 0.882353 4.05882 0.529412C4.41176 0.17647 4.82353 0 5.29412 0H18.2353C18.7059 0 19.1176 0.17647 19.4706 0.529412C19.8235 0.882353 20 1.29412 20 1.76471V18.2353C20 18.7059 19.8235 19.1176 19.4706 19.4706C19.1176 19.8235 18.7059 20 18.2353 20H5.29412ZM5.29412 18.2353H18.2353V1.76471H5.29412V18.2353ZM5.29412 18.2353V1.76471V18.2353Z" fill="#1A2238"/>
</svg>
