<svg width="32" height="32" viewBox="0 0 32 32" fill="none" xmlns="http://www.w3.org/2000/svg">
<path d="M15.974 21.0567C17.3778 21.0567 18.5759 20.5605 19.5682 19.5682C20.5605 18.5759 21.0567 17.3778 21.0567 15.974C21.0567 14.5702 20.5605 13.3722 19.5682 12.3799C18.5759 11.3875 17.3778 10.8914 15.974 10.8914C14.5702 10.8914 13.3722 11.3875 12.3799 12.3799C11.3875 13.3722 10.8914 14.5702 10.8914 15.974C10.8914 17.3778 11.3875 18.5759 12.3799 19.5682C13.3722 20.5605 14.5702 21.0567 15.974 21.0567ZM15.974 23.2349C13.9652 23.2349 12.2528 22.527 10.8369 21.1111C9.42104 19.6952 8.71311 17.9829 8.71311 15.974C8.71311 13.9652 9.42104 12.2528 10.8369 10.8369C12.2528 9.42104 13.9652 8.71311 15.974 8.71311C17.9829 8.71311 19.6952 9.42104 21.1111 10.8369C22.527 12.2528 23.2349 13.9652 23.2349 15.974C23.2349 17.9829 22.527 19.6952 21.1111 21.1111C19.6952 22.527 17.9829 23.2349 15.974 23.2349ZM1.08914 17.0632C0.774498 17.0632 0.514315 16.9603 0.308589 16.7546C0.102863 16.5488 0 16.2887 0 15.974C0 15.6594 0.102863 15.3992 0.308589 15.1935C0.514315 14.9878 0.774498 14.8849 1.08914 14.8849H4.7196C5.03424 14.8849 5.29442 14.9878 5.50015 15.1935C5.70587 15.3992 5.80874 15.6594 5.80874 15.974C5.80874 16.2887 5.70587 16.5488 5.50015 16.7546C5.29442 16.9603 5.03424 17.0632 4.7196 17.0632H1.08914ZM27.2285 17.0632C26.9138 17.0632 26.6536 16.9603 26.4479 16.7546C26.2422 16.5488 26.1393 16.2887 26.1393 15.974C26.1393 15.6594 26.2422 15.3992 26.4479 15.1935C26.6536 14.9878 26.9138 14.8849 27.2285 14.8849H30.8589C31.1736 14.8849 31.4337 14.9878 31.6395 15.1935C31.8452 15.3992 31.9481 15.6594 31.9481 15.974C31.9481 16.2887 31.8452 16.5488 31.6395 16.7546C31.4337 16.9603 31.1736 17.0632 30.8589 17.0632H27.2285ZM15.974 5.80874C15.6594 5.80874 15.3992 5.70587 15.1935 5.50015C14.9878 5.29442 14.8849 5.03424 14.8849 4.7196V1.08914C14.8849 0.774498 14.9878 0.514315 15.1935 0.308589C15.3992 0.102863 15.6594 0 15.974 0C16.2887 0 16.5488 0.102863 16.7546 0.308589C16.9603 0.514315 17.0632 0.774498 17.0632 1.08914V4.7196C17.0632 5.03424 16.9603 5.29442 16.7546 5.50015C16.5488 5.70587 16.2887 5.80874 15.974 5.80874ZM15.974 31.9481C15.6594 31.9481 15.3992 31.8452 15.1935 31.6395C14.9878 31.4337 14.8849 31.1736 14.8849 30.8589V27.2285C14.8849 26.9138 14.9878 26.6536 15.1935 26.4479C15.3992 26.2422 15.6594 26.1393 15.974 26.1393C16.2887 26.1393 16.5488 26.2422 16.7546 26.4479C16.9603 26.6536 17.0632 26.9138 17.0632 27.2285V30.8589C17.0632 31.1736 16.9603 31.4337 16.7546 31.6395C16.5488 31.8452 16.2887 31.9481 15.974 31.9481ZM7.26092 8.78572L5.19156 6.75266C4.97373 6.53483 4.87087 6.27465 4.88297 5.97211C4.89507 5.66957 4.99793 5.40939 5.19156 5.19156C5.40939 4.97373 5.66957 4.86482 5.97211 4.86482C6.27465 4.86482 6.53483 4.97373 6.75266 5.19156L8.78572 7.26092C8.97934 7.47875 9.07615 7.73288 9.07615 8.02332C9.07615 8.31376 8.97934 8.55579 8.78572 8.74941C8.59209 8.96724 8.34401 9.07615 8.04147 9.07615C7.73893 9.07615 7.47875 8.97934 7.26092 8.78572ZM25.1954 26.7565L23.1623 24.6871C22.9687 24.4693 22.8719 24.2091 22.8719 23.9066C22.8719 23.604 22.9808 23.356 23.1986 23.1623C23.3923 22.9445 23.6343 22.8356 23.9247 22.8356C24.2152 22.8356 24.4693 22.9445 24.6871 23.1623L26.7565 25.1954C26.9743 25.4132 27.0772 25.6734 27.0651 25.9759C27.053 26.2785 26.9501 26.5387 26.7565 26.7565C26.5387 26.9743 26.2785 27.0832 25.9759 27.0832C25.6734 27.0832 25.4132 26.9743 25.1954 26.7565ZM23.1623 8.78572C22.9445 8.56789 22.8356 8.31376 22.8356 8.02332C22.8356 7.73288 22.9445 7.47875 23.1623 7.26092L25.1954 5.19156C25.4132 4.97373 25.6734 4.87087 25.9759 4.88297C26.2785 4.89507 26.5387 4.99793 26.7565 5.19156C26.9743 5.40939 27.0832 5.66957 27.0832 5.97211C27.0832 6.27465 26.9743 6.53483 26.7565 6.75266L24.6871 8.78572C24.4935 8.97934 24.2454 9.07615 23.9429 9.07615C23.6403 9.07615 23.3802 8.97934 23.1623 8.78572ZM5.19156 26.7565C4.97373 26.5387 4.86482 26.2785 4.86482 25.9759C4.86482 25.6734 4.97373 25.4132 5.19156 25.1954L7.26092 23.1623C7.47875 22.9445 7.73288 22.8356 8.02332 22.8356C8.31376 22.8356 8.56789 22.9445 8.78572 23.1623C9.00354 23.3802 9.11246 23.6343 9.11246 23.9247C9.11246 24.2152 9.00354 24.4693 8.78572 24.6871L6.75266 26.7565C6.53483 26.9743 6.27465 27.0772 5.97211 27.0651C5.66957 27.053 5.40939 26.9501 5.19156 26.7565Z" fill="#1A2238"/>
</svg>
