<svg width="39" height="38" viewBox="0 0 39 38" fill="none" xmlns="http://www.w3.org/2000/svg">
<path d="M19.5 0.699951C9.1177 0.699951 0.7 9.11765 0.7 19.5C0.7 28.3093 6.76613 35.6805 14.9441 37.7203C14.8564 37.4665 14.8 37.172 14.8 36.8069V33.5937C14.037 33.5937 12.7586 33.5937 12.4375 33.5937C11.1512 33.5937 10.0076 33.0407 9.45297 32.0129C8.83727 30.8708 8.73073 29.124 7.2048 28.0555C6.75203 27.6999 7.0967 27.2941 7.6184 27.349C8.5819 27.6216 9.3809 28.2827 10.1329 29.2634C10.8818 30.2457 11.2343 30.4682 12.6333 30.4682C13.3117 30.4682 14.3269 30.429 15.2825 30.2786C15.7964 28.9736 16.6847 27.772 17.7704 27.2048C11.51 26.5609 8.52237 23.4464 8.52237 19.218C8.52237 17.3975 9.29787 15.6366 10.6154 14.1529C10.183 12.6803 9.6394 9.67695 10.7815 8.53328C13.5984 8.53328 15.3013 10.36 15.7102 10.8535C17.114 10.3726 18.6556 10.1 20.2755 10.1C21.8986 10.1 23.4464 10.3726 24.8533 10.8567C25.2575 10.3663 26.962 8.53328 29.7852 8.53328C30.932 9.67852 30.3821 12.6944 29.945 14.1639C31.2547 15.6444 32.0255 17.4006 32.0255 19.218C32.0255 23.4433 29.0426 26.5562 22.7916 27.2033C24.5118 28.101 25.7667 30.6233 25.7667 32.5237V36.8069C25.7667 36.9699 25.7306 37.0874 25.7118 37.2268C33.0376 34.659 38.3 27.703 38.3 19.5C38.3 9.11765 29.8823 0.699951 19.5 0.699951Z" fill="#1A2238"/>
</svg>
