<svg width="219" height="36" viewBox="0 0 219 36" fill="none" xmlns="http://www.w3.org/2000/svg">
<path d="M20 35H0.55V4.05H6.75V29.9H20V35ZM36.2 4.75C36.2 5.95 35.8167 6.9 35.05 7.6C34.2833 8.3 33.3667 8.65 32.3 8.65C31.2333 8.65 30.3167 8.3 29.55 7.6C28.8167 6.9 28.45 5.95 28.45 4.75C28.45 3.51667 28.8167 2.55 29.55 1.85C30.3167 1.15 31.2333 0.799999 32.3 0.799999C33.3667 0.799999 34.2833 1.15 35.05 1.85C35.8167 2.55 36.2 3.51667 36.2 4.75ZM45.35 34C44.0833 34.6 42.8833 35 41.75 35.2C40.65 35.4333 39.6333 35.55 38.7 35.55C37.1 35.55 35.75 35.3167 34.65 34.85C33.5833 34.3833 32.7167 33.7167 32.05 32.85C31.4167 31.95 30.9667 30.8667 30.7 29.6C30.4333 28.3333 30.3 26.8833 30.3 25.25V16.6H23.8V11.5H36.45V26.05C36.45 27.45 36.7 28.5 37.2 29.2C37.7333 29.8667 38.6 30.2 39.8 30.2C40.3667 30.2 41.05 30.1333 41.85 30C42.65 29.8333 43.55 29.5167 44.55 29.05L45.35 34ZM50.15 12.25C51.25 11.95 52.6 11.6667 54.2 11.4C55.8333 11.1333 57.6 11 59.5 11C61.3667 11 62.9167 11.2667 64.15 11.8C65.3833 12.3 66.35 13.0333 67.05 14C67.7833 14.9333 68.3 16.0667 68.6 17.4C68.9 18.7 69.05 20.15 69.05 21.75V35H62.9V22.55C62.9 20.35 62.65 18.7667 62.15 17.8C61.65 16.8333 60.6333 16.35 59.1 16.35C58.6333 16.35 58.1667 16.3667 57.7 16.4C57.2667 16.4333 56.8 16.4833 56.3 16.55V35H50.15V12.25ZM93.9 34.2C92.7667 34.5 91.3833 34.8 89.75 35.1C88.15 35.4 86.4 35.55 84.5 35.55C82.5667 35.55 80.9833 35.2833 79.75 34.75C78.5167 34.2167 77.5333 33.4667 76.8 32.5C76.1 31.5 75.6167 30.3333 75.35 29C75.0833 27.6667 74.95 26.2 74.95 24.6V11.5H81.1V23.8C81.1 25.9667 81.35 27.5833 81.85 28.65C82.3833 29.6833 83.4 30.2 84.9 30.2C85.8333 30.2 86.7667 30.1167 87.7 29.95V11.5H93.9V34.2ZM109.7 18.85L114.5 11.5H120.75L113.15 22.8C113.95 23.7667 114.733 24.8 115.5 25.9C116.267 26.9667 117 28.05 117.7 29.15C118.4 30.25 119.033 31.3 119.6 32.3C120.167 33.3 120.65 34.2 121.05 35H114.65C113.75 33.3 112.85 31.7833 111.95 30.45C111.05 29.1167 110.2 27.9167 109.4 26.85C108.4 28.1833 107.5 29.4833 106.7 30.75C105.9 32.0167 105.083 33.4333 104.25 35H98C98.5 34.0667 99.0667 33.1 99.7 32.1C100.367 31.0667 101.05 30.0333 101.75 29C102.483 27.9333 103.233 26.8833 104 25.85C104.8 24.8167 105.567 23.8333 106.3 22.9L98.05 11.5H104.5L109.7 18.85Z" fill="#FF6A3D"/>
<path d="M143.7 12.2C143.7 13.2667 143.5 14.3 143.1 15.3C142.7 16.2667 142.167 17.2167 141.5 18.15C140.833 19.0833 140.083 19.9833 139.25 20.85C138.417 21.7167 137.567 22.55 136.7 23.35C136.267 23.75 135.767 24.2333 135.2 24.8C134.633 25.3333 134.1 25.9 133.6 26.5C133.1 27.0667 132.667 27.65 132.3 28.25C131.967 28.85 131.8 29.4 131.8 29.9H145.1V35H124.9C124.8 34.6667 124.75 34.25 124.75 33.75C124.783 33.25 124.8 32.9 124.8 32.7C124.8 31.0333 125.1 29.5 125.7 28.1C126.333 26.7 127.117 25.4167 128.05 24.25C129.017 23.05 130.033 21.95 131.1 20.95C132.2 19.9167 133.217 18.9333 134.15 18C135.117 17.0667 135.9 16.1667 136.5 15.3C137.133 14.4333 137.45 13.55 137.45 12.65C137.45 11.3833 137.067 10.4167 136.3 9.75C135.533 9.05 134.567 8.7 133.4 8.7C132.433 8.7 131.417 8.93333 130.35 9.4C129.283 9.86667 128.233 10.65 127.2 11.75L124.15 7.45C125.483 6.05 127.017 5.01666 128.75 4.35C130.517 3.68333 132.267 3.35 134 3.35C135.267 3.35 136.483 3.53333 137.65 3.9C138.817 4.26667 139.85 4.81667 140.75 5.55C141.65 6.28333 142.367 7.21666 142.9 8.35C143.433 9.45 143.7 10.7333 143.7 12.2Z" fill="white"/>
<path d="M149.2 23.25C149.2 21.55 149.467 19.95 150 18.45C150.533 16.95 151.35 15.65 152.45 14.55C153.55 13.4167 154.933 12.5333 156.6 11.9C158.3 11.2333 160.317 10.9 162.65 10.9C164.05 10.9 165.317 11 166.45 11.2C167.583 11.4 168.733 11.7333 169.9 12.2L168.55 17.15C167.883 16.9167 167.133 16.7167 166.3 16.55C165.5 16.35 164.467 16.25 163.2 16.25C161.733 16.25 160.5 16.4333 159.5 16.8C158.533 17.1333 157.75 17.6167 157.15 18.25C156.55 18.85 156.117 19.5833 155.85 20.45C155.583 21.3167 155.45 22.25 155.45 23.25C155.45 25.4167 156.05 27.1167 157.25 28.35C158.483 29.5833 160.567 30.2 163.5 30.2C164.467 30.2 165.467 30.1333 166.5 30C167.567 29.8667 168.533 29.65 169.4 29.35L170.3 34.4C169.433 34.7333 168.383 35 167.15 35.2C165.917 35.4333 164.467 35.55 162.8 35.55C160.4 35.55 158.333 35.2333 156.6 34.6C154.9 33.9667 153.5 33.1 152.4 32C151.3 30.9 150.483 29.6 149.95 28.1C149.45 26.6 149.2 24.9833 149.2 23.25ZM189.15 11.25C190.45 11.25 191.517 11.45 192.35 11.85C193.183 12.25 193.833 12.85 194.3 13.65C194.8 14.45 195.133 15.4667 195.3 16.7C195.467 17.9 195.55 19.3167 195.55 20.95V35H190.55V20.65C190.55 19.7167 190.483 18.9667 190.35 18.4C190.25 17.8333 190.1 17.4 189.9 17.1C189.733 16.8 189.517 16.6 189.25 16.5C189.017 16.4 188.767 16.35 188.5 16.35C188.2 16.35 187.883 16.3833 187.55 16.45C187.217 16.4833 186.917 16.5667 186.65 16.7C186.75 17.3333 186.833 18.0333 186.9 18.8C186.967 19.5667 187 20.4167 187 21.35V26.05H182V20.65C182 19.05 181.833 17.9333 181.5 17.3C181.2 16.6667 180.7 16.35 180 16.35C179.8 16.35 179.55 16.3667 179.25 16.4C178.983 16.4333 178.717 16.4833 178.45 16.55V35H173.45V12.4C174.75 12.0333 176.033 11.75 177.3 11.55C178.567 11.35 179.683 11.25 180.65 11.25C181.517 11.25 182.283 11.3667 182.95 11.6C183.65 11.8 184.25 12.15 184.75 12.65C185.317 12.2833 185.983 11.9667 186.75 11.7C187.517 11.4 188.317 11.25 189.15 11.25ZM204.65 23.1C204.65 25.2 205.033 26.9167 205.8 28.25C206.6 29.5833 207.867 30.25 209.6 30.25C210.1 30.25 210.567 30.2333 211 30.2C211.433 30.1667 211.883 30.1167 212.35 30.05V17.25C211.883 16.9833 211.35 16.7667 210.75 16.6C210.15 16.4 209.517 16.3 208.85 16.3C207.383 16.3 206.317 16.8833 205.65 18.05C204.983 19.2167 204.65 20.9 204.65 23.1ZM218.5 34.3C217.367 34.6667 215.983 34.9667 214.35 35.2C212.717 35.4333 211.117 35.55 209.55 35.55C205.883 35.55 203.1 34.4667 201.2 32.3C199.333 30.1333 198.4 27.1667 198.4 23.4C198.4 19.5667 199.183 16.55 200.75 14.35C202.35 12.1167 204.7 11 207.8 11C208.633 11 209.45 11.1 210.25 11.3C211.05 11.4667 211.75 11.7167 212.35 12.05V1.35L218.5 0.3V34.3Z" fill="#9DAAF2"/>
</svg>
