<svg width="23" height="24" viewBox="0 0 23 24" fill="none" xmlns="http://www.w3.org/2000/svg">
<path d="M11.1818 23.3572C8.07576 23.3572 5.43561 22.27 3.26136 20.0958C1.08712 17.9216 0 15.2814 0 12.1753C0 9.06929 1.08712 6.42914 3.26136 4.25489C5.43561 2.08065 8.07576 0.99353 11.1818 0.99353C11.3475 0.99353 11.5235 0.998707 11.7098 1.00906C11.8962 1.01941 12.1343 1.03494 12.4242 1.05565C11.6788 1.71828 11.099 2.53621 10.6848 3.50944C10.2707 4.48267 10.0636 5.50767 10.0636 6.58444C10.0636 8.44808 10.7159 10.0322 12.0205 11.3367C13.325 12.6413 14.9091 13.2935 16.7727 13.2935C17.8495 13.2935 18.8745 13.102 19.8477 12.7189C20.821 12.3358 21.6389 11.8026 22.3015 11.1193C22.3222 11.3678 22.3378 11.5697 22.3481 11.725C22.3585 11.8803 22.3636 12.0304 22.3636 12.1753C22.3636 15.2814 21.2765 17.9216 19.1023 20.0958C16.928 22.27 14.2879 23.3572 11.1818 23.3572ZM11.1818 21.4935C13.4389 21.4935 15.4061 20.7947 17.0833 19.3969C18.7606 17.9992 19.8063 16.3582 20.2205 14.4738C19.7028 14.7016 19.1489 14.8724 18.5587 14.9863C17.9686 15.1002 17.3732 15.1572 16.7727 15.1572C14.3914 15.1572 12.3673 14.3237 10.7004 12.6568C9.03346 10.9899 8.2 8.96575 8.2 6.58444C8.2 6.08747 8.25177 5.55426 8.3553 4.98482C8.45884 4.41537 8.6452 3.76828 8.91439 3.04353C6.8851 3.60262 5.20265 4.73633 3.86705 6.44467C2.53144 8.153 1.86364 10.0632 1.86364 12.1753C1.86364 14.7637 2.76957 16.9639 4.58144 18.7757C6.39331 20.5876 8.59343 21.4935 11.1818 21.4935Z" fill="#1A2238"/>
</svg>
