<svg width="23" height="24" viewBox="0 0 23 24" fill="none" xmlns="http://www.w3.org/2000/svg">
<path d="M11.1818 23.3571C8.07576 23.3571 5.43561 22.27 3.26136 20.0958C1.08712 17.9215 0 15.2814 0 12.1753C0 9.06926 1.08712 6.42911 3.26136 4.25486C5.43561 2.08062 8.07576 0.9935 11.1818 0.9935C11.3475 0.9935 11.5235 0.998677 11.7098 1.00903C11.8962 1.01938 12.1343 1.03491 12.4242 1.05562C11.6788 1.71825 11.099 2.53618 10.6848 3.50941C10.2707 4.48264 10.0636 5.50764 10.0636 6.58441C10.0636 8.44805 10.7159 10.0321 12.0205 11.3367C13.325 12.6412 14.9091 13.2935 16.7727 13.2935C17.8495 13.2935 18.8745 13.102 19.8477 12.7189C20.821 12.3358 21.6389 11.8026 22.3015 11.1193C22.3222 11.3677 22.3378 11.5696 22.3481 11.7249C22.3585 11.8802 22.3636 12.0304 22.3636 12.1753C22.3636 15.2814 21.2765 17.9215 19.1023 20.0958C16.928 22.27 14.2879 23.3571 11.1818 23.3571ZM11.1818 21.4935C13.4389 21.4935 15.4061 20.7946 17.0833 19.3969C18.7606 17.9992 19.8063 16.3581 20.2205 14.4738C19.7028 14.7016 19.1489 14.8724 18.5587 14.9863C17.9686 15.1002 17.3732 15.1571 16.7727 15.1571C14.3914 15.1571 12.3673 14.3237 10.7004 12.6568C9.03346 10.9898 8.2 8.96572 8.2 6.58441C8.2 6.08744 8.25177 5.55423 8.3553 4.98479C8.45884 4.41534 8.6452 3.76825 8.91439 3.0435C6.8851 3.60259 5.20265 4.7363 3.86705 6.44464C2.53144 8.15297 1.86364 10.0632 1.86364 12.1753C1.86364 14.7637 2.76957 16.9638 4.58144 18.7757C6.39331 20.5876 8.59343 21.4935 11.1818 21.4935Z" fill="white"/>
</svg>
